<?xml version="1.0" encoding="utf-8"?>
<!-- Generator: Adobe Illustrator 21.0.2, SVG Export Plug-In . SVG Version: 6.00 Build 0)  -->
<svg version="1.1" id="Слой_1" xmlns="http://www.w3.org/2000/svg" xmlns:xlink="http://www.w3.org/1999/xlink" x="0px" y="0px"
	 viewBox="0 0 222 21" style="enable-background:new 0 0 222 21;" xml:space="preserve">
<style type="text/css">
	.st0{display:none;fill:none;}
	.st1{enable-background:new    ;}
	.st2{fill:#FF0000;}
	.st3{fill:#FFFFFF;}
</style>
<rect class="st0" width="228.3" height="20"/>
<g class="st1">
	<path class="st2" d="M2.7,18.1H0.5L4.1,11c-1-0.4-1.8-0.9-2.3-1.6S1,8,1,7c0-1.4,0.5-2.5,1.5-3.3c1-0.8,2.3-1.2,4.1-1.2h5v15.6H9.5
		v-6.5H6L2.7,18.1z M9.5,4.2H6.6c-1.1,0-2,0.2-2.5,0.7C3.4,5.4,3.2,6.1,3.2,7c0,0.9,0.3,1.6,0.9,2.1c0.6,0.5,1.4,0.8,2.5,0.8h2.9
		V4.2z"/>
</g>
<g class="st1">
	<path class="st3" d="M23.9,18.1h-2.1v-4.9h-5.2v4.9h-2.1V6.5h2.1v5h5.2v-5h2.1V18.1z"/>
	<path class="st3" d="M27.4,16.5c0.6,0,1-0.5,1.2-1.4c0.3-0.9,0.4-2.3,0.6-4.2l0.3-4.4h7.7v10h1.5v3.9h-2.1v-2.2h-8.2v2.2h-2.1v-3.9
		H27.4z M31.3,10.9c-0.1,1.4-0.2,2.5-0.3,3.4c-0.1,0.9-0.4,1.6-0.7,2.2H35V8.4h-3.6L31.3,10.9z"/>
	<path class="st3" d="M45.8,18.4c-1.7,0-3-0.5-3.9-1.6s-1.4-2.5-1.4-4.2v-0.5c0-1.7,0.5-3,1.4-4.1c1-1.1,2.1-1.6,3.5-1.6
		c1.6,0,2.7,0.5,3.5,1.5c0.8,1,1.2,2.3,1.2,3.9v1.1h-7.4l0,0.1c0,1.2,0.3,2.1,0.8,2.8c0.5,0.7,1.3,1.1,2.4,1.1
		c0.7,0,1.3-0.1,1.9-0.3c0.5-0.2,1-0.5,1.4-0.8l0.8,1.4c-0.4,0.4-1,0.7-1.6,1C47.6,18.2,46.7,18.4,45.8,18.4z M45.5,8
		c-0.7,0-1.3,0.3-1.8,0.9c-0.5,0.6-0.8,1.3-0.9,2.2l0,0.1H48v-0.2c0-0.8-0.2-1.5-0.6-2.1C47,8.2,46.3,8,45.5,8z"/>
	<path class="st3" d="M55.8,13.2h-1.1v4.9h-2.1V6.5h2.1v4.9h0.9l4.2-4.9h2.5l0,0.1l-4.8,5.5l5.2,6l0,0.1H60L55.8,13.2z"/>
	<path class="st3" d="M69,16.7c0.7,0,1.2-0.2,1.7-0.6c0.5-0.4,0.7-1,0.7-1.6h1.9l0,0.1c0,1-0.4,1.9-1.3,2.7
		c-0.9,0.8-1.9,1.2-3.1,1.2c-1.6,0-2.9-0.6-3.8-1.7c-0.9-1.1-1.3-2.5-1.3-4.1v-0.5c0-1.6,0.4-3,1.3-4.1c0.9-1.1,2.1-1.7,3.8-1.7
		c1.3,0,2.4,0.4,3.2,1.2s1.2,1.8,1.2,3l0,0.1h-1.9c0-0.7-0.2-1.3-0.7-1.8C70.3,8.2,69.7,8,69,8c-1,0-1.8,0.4-2.3,1.2
		C66.2,10,66,11,66,12.1v0.5c0,1.2,0.2,2.2,0.7,3C67.2,16.3,67.9,16.7,69,16.7z"/>
	<path class="st3" d="M90.3,11.2h-6.6v6.9h-2.1V2.5h9.8v1.7h-7.7v5.4h6.6V11.2z"/>
	<path class="st3" d="M98.7,8.4l-1.1-0.1c-0.6,0-1,0.1-1.4,0.4c-0.4,0.3-0.7,0.6-0.9,1.1v8.3h-2.1V6.5h1.9l0.2,1.7
		c0.3-0.6,0.7-1.1,1.2-1.4s1-0.5,1.7-0.5c0.2,0,0.3,0,0.5,0c0.1,0,0.3,0.1,0.4,0.1L98.7,8.4z"/>
	<path class="st3" d="M100.2,12.2c0-1.7,0.5-3.1,1.4-4.2c0.9-1.1,2.2-1.7,3.8-1.7c1.6,0,2.9,0.6,3.8,1.7s1.4,2.5,1.4,4.3v0.2
		c0,1.7-0.5,3.2-1.4,4.3c-0.9,1.1-2.2,1.7-3.8,1.7c-1.6,0-2.9-0.6-3.8-1.7c-0.9-1.1-1.4-2.5-1.4-4.2V12.2z M102.3,12.5
		c0,1.2,0.3,2.2,0.8,3.1c0.5,0.8,1.3,1.2,2.3,1.2c1,0,1.8-0.4,2.3-1.2c0.5-0.8,0.8-1.8,0.8-3.1v-0.2c0-1.2-0.3-2.2-0.8-3
		S106.4,8,105.4,8c-1,0-1.8,0.4-2.3,1.2c-0.5,0.8-0.8,1.8-0.8,3V12.5z"/>
	<path class="st3" d="M115.1,6.5l0.2,1.7c0.4-0.6,0.9-1.1,1.5-1.4c0.6-0.3,1.2-0.5,2-0.5c1.3,0,2.2,0.4,2.9,1.1c0.7,0.7,1,1.9,1,3.4
		v7.3h-2.1v-7.3c0-1-0.2-1.8-0.6-2.2c-0.4-0.4-1-0.6-1.9-0.6c-0.7,0-1.2,0.1-1.7,0.4c-0.5,0.3-0.8,0.6-1.1,1.1v8.6h-2.1V6.5H115.1z"
		/>
	<path class="st3" d="M128.6,3.7v2.8h2.2v1.6h-2.2v7.1c0,0.5,0.1,0.9,0.3,1.1c0.2,0.2,0.5,0.3,0.9,0.3c0.1,0,0.3,0,0.4,0
		c0.2,0,0.3-0.1,0.4-0.1l0.3,1.5c-0.2,0.1-0.4,0.2-0.7,0.3c-0.3,0.1-0.6,0.1-0.9,0.1c-0.9,0-1.5-0.3-2.1-0.8
		c-0.5-0.5-0.8-1.3-0.8-2.4V8.1h-1.8V6.5h1.8V3.7H128.6z"/>
	<path class="st3" d="M137.9,18.4c-1.7,0-3-0.5-3.9-1.6c-0.9-1.1-1.4-2.5-1.4-4.2v-0.5c0-1.7,0.5-3,1.4-4.1c1-1.1,2.1-1.6,3.5-1.6
		c1.6,0,2.7,0.5,3.5,1.5c0.8,1,1.2,2.3,1.2,3.9v1.1h-7.4l0,0.1c0,1.2,0.3,2.1,0.8,2.8c0.5,0.7,1.3,1.1,2.4,1.1
		c0.7,0,1.3-0.1,1.9-0.3c0.5-0.2,1-0.5,1.4-0.8l0.8,1.4c-0.4,0.4-1,0.7-1.6,1C139.7,18.2,138.9,18.4,137.9,18.4z M137.6,8
		c-0.7,0-1.3,0.3-1.8,0.9c-0.5,0.6-0.8,1.3-0.9,2.2l0,0.1h5.2v-0.2c0-0.8-0.2-1.5-0.6-2.1S138.4,8,137.6,8z"/>
	<path class="st3" d="M146.5,6.5l0.2,1.7c0.4-0.6,0.9-1.1,1.5-1.4c0.6-0.3,1.2-0.5,2-0.5c1.3,0,2.2,0.4,2.9,1.1c0.7,0.7,1,1.9,1,3.4
		v7.3h-2.1v-7.3c0-1-0.2-1.8-0.6-2.2c-0.4-0.4-1-0.6-1.9-0.6c-0.7,0-1.2,0.1-1.7,0.4c-0.5,0.3-0.8,0.6-1.1,1.1v8.6h-2.1V6.5H146.5z"
		/>
	<path class="st3" d="M156.6,12.5c0-1.9,0.4-3.4,1.2-4.5c0.8-1.1,1.9-1.7,3.4-1.7c0.7,0,1.3,0.1,1.8,0.4c0.5,0.3,1,0.6,1.3,1.1V1.4
		h2.1v16.8h-1.6l-0.3-1.5c-0.4,0.6-0.8,1-1.4,1.3s-1.2,0.4-1.9,0.4c-1.4,0-2.5-0.5-3.3-1.5c-0.8-1-1.2-2.4-1.2-4.1V12.5z
		 M158.8,12.8c0,1.2,0.2,2.1,0.7,2.8c0.5,0.7,1.2,1.1,2.2,1.1c0.6,0,1.2-0.1,1.6-0.4s0.8-0.7,1.1-1.2V9.6c-0.3-0.5-0.6-0.9-1.1-1.1
		c-0.4-0.3-1-0.4-1.6-0.4c-1,0-1.8,0.4-2.3,1.3c-0.5,0.8-0.7,1.9-0.7,3.3V12.8z"/>
	<path class="st3" d="M184.9,18.1h-9.7v-1.5l4.9-5.9c0.9-1.1,1.5-1.9,1.8-2.5c0.3-0.6,0.5-1.3,0.5-1.9c0-0.7-0.2-1.3-0.6-1.8
		s-1-0.7-1.8-0.7c-0.9,0-1.6,0.3-2.1,0.8c-0.5,0.6-0.7,1.3-0.7,2.1h-2l0-0.1c0-1.3,0.4-2.4,1.3-3.2c0.9-0.9,2.1-1.3,3.6-1.3
		c1.4,0,2.5,0.4,3.3,1.2s1.2,1.8,1.2,3c0,0.8-0.2,1.6-0.7,2.4c-0.5,0.8-1.1,1.8-2.1,3l-3.9,4.6l0,0.1h7.1V18.1z"/>
	<path class="st3" d="M197.1,12.6c0,1.8-0.4,3.2-1.3,4.2c-0.9,1-2.1,1.5-3.6,1.5c-1.5,0-2.7-0.5-3.6-1.5c-0.9-1-1.4-2.4-1.4-4.2V8
		c0-1.8,0.4-3.2,1.3-4.2c0.9-1,2.1-1.6,3.6-1.6c1.5,0,2.7,0.5,3.6,1.6c0.9,1,1.4,2.4,1.4,4.2V12.6z M195,7.6c0-1.1-0.3-2-0.8-2.7
		c-0.5-0.7-1.2-1-2.1-1c-0.9,0-1.6,0.3-2.1,1c-0.5,0.7-0.7,1.5-0.7,2.7V13c0,1.1,0.3,2,0.8,2.7c0.5,0.7,1.2,1,2.1,1
		c0.9,0,1.6-0.3,2.1-1c0.5-0.7,0.7-1.5,0.7-2.7V7.6z"/>
	<path class="st3" d="M206,18.1h-2.1V4.4l-3.4,0V2.8l5.5-0.6V18.1z"/>
	<path class="st3" d="M216.1,16.7c1,0,1.8-0.4,2.5-1.1c0.6-0.7,0.9-1.7,0.9-3v-1.3c-0.3,0.5-0.8,0.9-1.3,1.2
		c-0.5,0.3-1.1,0.4-1.7,0.4c-1.5,0-2.7-0.5-3.5-1.4c-0.9-0.9-1.3-2.2-1.3-3.9c0-1.6,0.5-2.9,1.4-3.9s2-1.5,3.4-1.5
		c1.6,0,2.8,0.5,3.8,1.5c0.9,1,1.4,2.4,1.4,4.2v4.7c0,1.8-0.5,3.2-1.5,4.2c-1,1-2.4,1.5-4,1.5c-0.6,0-1.1-0.1-1.7-0.2
		c-0.6-0.1-1.1-0.3-1.6-0.5l0.3-1.6c0.5,0.2,0.9,0.4,1.4,0.5C215,16.7,215.5,16.7,216.1,16.7z M216.5,11.2c0.7,0,1.4-0.2,1.9-0.5
		c0.5-0.3,0.9-0.8,1.1-1.3V7.6c0-1.2-0.3-2.1-0.8-2.7s-1.3-1-2.2-1c-0.8,0-1.4,0.3-1.9,1c-0.5,0.7-0.8,1.6-0.8,2.7
		c0,1.1,0.2,1.9,0.7,2.6C215,10.9,215.7,11.2,216.5,11.2z"/>
</g>
</svg>
